<?xml version="1.0" encoding="iso-8859-1"?>
<!-- Generator: Adobe Illustrator 16.0.0, SVG Export Plug-In . SVG Version: 6.00 Build 0)  -->
<!DOCTYPE svg PUBLIC "-//W3C//DTD SVG 1.1//EN" "http://www.w3.org/Graphics/SVG/1.1/DTD/svg11.dtd">
<svg version="1.1" xmlns="http://www.w3.org/2000/svg" xmlns:xlink="http://www.w3.org/1999/xlink" x="0px" y="0px"
	 width="989.094px" height="165.476px" viewBox="0 0 989.094 165.476" style="enable-background:new 0 0 989.094 165.476;"
	 xml:space="preserve">
<g id="Logo">
	<g>
		<polygon style="fill:#FFFFFF;" points="10.598,72.973 14.514,59.688 20.546,60.219 19.152,68.656 14.5,73.281 		"/>
		<g>
			<polygon style="fill:#93D2C0;" points="26.881,112.104 41.619,139.586 65.943,113.814 			"/>
		</g>
		<g>
			
				<linearGradient id="SVGID_1_" gradientUnits="userSpaceOnUse" x1="-15.7822" y1="-178.8516" x2="-19.3579" y2="-190.4724" gradientTransform="matrix(-0.3917 0.9201 -0.9201 -0.3917 -144.7175 79.69)">
				<stop  offset="0" style="stop-color:#C6E2B2"/>
				<stop  offset="1" style="stop-color:#41C0BA"/>
			</linearGradient>
			<polygon style="fill:url(#SVGID_1_);" points="27.639,116.049 37.713,155.789 40.854,140.693 			"/>
		</g>
		<g>
			
				<linearGradient id="SVGID_2_" gradientUnits="userSpaceOnUse" x1="-58.7852" y1="-168.4429" x2="0.9855" y2="-168.4429" gradientTransform="matrix(-0.3917 0.9201 -0.9201 -0.3917 -144.7175 79.69)">
				<stop  offset="0" style="stop-color:#C6E2B2"/>
				<stop  offset="1" style="stop-color:#3AB4A3"/>
			</linearGradient>
			<polygon style="fill:url(#SVGID_2_);" points="9.034,85.942 35.037,150.105 25.297,111.699 			"/>
		</g>
		<g>
			
				<linearGradient id="SVGID_3_" gradientUnits="userSpaceOnUse" x1="-80.5396" y1="-139.3716" x2="-58.7835" y2="-139.3716" gradientTransform="matrix(-0.3917 0.9201 -0.9201 -0.3917 -144.7175 79.69)">
				<stop  offset="0.1626" style="stop-color:#F0EE91"/>
				<stop  offset="0.5487" style="stop-color:#A9D19A"/>
				<stop  offset="1" style="stop-color:#3AB4A3"/>
			</linearGradient>
			<polygon style="fill:url(#SVGID_3_);" points="12.735,62.357 8.1,75.631 13.099,68.092 			"/>
		</g>
		<g>
			
				<linearGradient id="SVGID_4_" gradientUnits="userSpaceOnUse" x1="-72.5781" y1="-152.8652" x2="-37.5828" y2="-152.8652" gradientTransform="matrix(-0.3917 0.9201 -0.9201 -0.3917 -144.7175 79.69)">
				<stop  offset="0" style="stop-color:#F0EE91"/>
				<stop  offset="0.2208" style="stop-color:#EDED91"/>
				<stop  offset="0.3788" style="stop-color:#E4E993"/>
				<stop  offset="0.5172" style="stop-color:#D5E295"/>
				<stop  offset="0.6444" style="stop-color:#BFD998"/>
				<stop  offset="0.7638" style="stop-color:#A2CE9B"/>
				<stop  offset="0.8775" style="stop-color:#7DC29E"/>
				<stop  offset="0.9847" style="stop-color:#47B6A2"/>
				<stop  offset="1" style="stop-color:#3AB4A3"/>
			</linearGradient>
			<polygon style="fill:url(#SVGID_4_);" points="6.67,79.951 24.162,107.656 13.488,69.678 			"/>
		</g>
		<g>
			
				<linearGradient id="SVGID_5_" gradientUnits="userSpaceOnUse" x1="-56.2534" y1="-148.1709" x2="-55.4872" y2="-160.9415" gradientTransform="matrix(-0.3917 0.9201 -0.9201 -0.3917 -144.7175 79.69)">
				<stop  offset="0" style="stop-color:#93CC7D"/>
				<stop  offset="1" style="stop-color:#67C18D"/>
			</linearGradient>
			<polygon style="fill:url(#SVGID_5_);" points="14.718,69.635 25.75,108.867 31.285,80.469 			"/>
		</g>
		
			<linearGradient id="SVGID_6_" gradientUnits="userSpaceOnUse" x1="-72.1567" y1="-151.5938" x2="-90.6367" y2="-149.6357" gradientTransform="matrix(-0.3917 0.9201 -0.9201 -0.3917 -144.7175 79.69)">
			<stop  offset="0" style="stop-color:#B1CB6E"/>
			<stop  offset="1" style="stop-color:#93CC7D"/>
		</linearGradient>
		<polygon style="fill:url(#SVGID_6_);" points="24.844,50.309 14.514,68.064 31.053,78.885 		"/>
		<g>
			
				<linearGradient id="SVGID_7_" gradientUnits="userSpaceOnUse" x1="-108.8511" y1="-139.2349" x2="-72.5783" y2="-139.2349" gradientTransform="matrix(-0.3917 0.9201 -0.9201 -0.3917 -144.7175 79.69)">
				<stop  offset="0" style="stop-color:#B1CB6E"/>
				<stop  offset="1" style="stop-color:#93CC7D"/>
			</linearGradient>
			<polygon style="fill:url(#SVGID_7_);" points="22.68,42.742 13.756,59.494 14.132,65.434 			"/>
		</g>
		<g>
			
				<linearGradient id="SVGID_8_" gradientUnits="userSpaceOnUse" x1="-108.8496" y1="-142.0181" x2="-72.5764" y2="-142.0181" gradientTransform="matrix(-0.3917 0.9201 -0.9201 -0.3917 -144.7175 79.69)">
				<stop  offset="0.4877" style="stop-color:#BBD751"/>
				<stop  offset="0.9486" style="stop-color:#EAEC8B"/>
				<stop  offset="1" style="stop-color:#F0EE91"/>
			</linearGradient>
			<polygon style="fill:url(#SVGID_8_);" points="25.471,38.738 16.8,61.748 24.518,48.486 			"/>
		</g>
		<g>
			<polygon style="fill:#93CC7D;" points="46.984,27.366 27.068,34.715 25.854,47.146 			"/>
		</g>
		<g>
			
				<linearGradient id="SVGID_9_" gradientUnits="userSpaceOnUse" x1="-121.2783" y1="-146.0298" x2="-119.2985" y2="-152.3523" gradientTransform="matrix(-0.3917 0.9201 -0.9201 -0.3917 -144.7175 79.69)">
				<stop  offset="0" style="stop-color:#F4F3B4"/>
				<stop  offset="0.0476" style="stop-color:#F2F2AF"/>
				<stop  offset="0.4832" style="stop-color:#E5EA89"/>
				<stop  offset="0.8143" style="stop-color:#DDE571"/>
				<stop  offset="1" style="stop-color:#DAE366"/>
			</linearGradient>
			<polygon style="fill:url(#SVGID_9_);" points="46.578,22.795 32.131,31.569 48.602,25.492 			"/>
		</g>
		<g>
			
				<linearGradient id="SVGID_10_" gradientUnits="userSpaceOnUse" x1="-124.1689" y1="-161.8306" x2="-137.1967" y2="-163.491" gradientTransform="matrix(-0.3917 0.9201 -0.9201 -0.3917 -144.7175 79.69)">
				<stop  offset="0" style="stop-color:#F8F8D4"/>
				<stop  offset="0.0335" style="stop-color:#F4F5C9"/>
				<stop  offset="0.1328" style="stop-color:#ECEFAB"/>
				<stop  offset="0.2365" style="stop-color:#E6EB93"/>
				<stop  offset="0.344" style="stop-color:#E0E781"/>
				<stop  offset="0.457" style="stop-color:#DDE573"/>
				<stop  offset="0.579" style="stop-color:#DBE469"/>
				<stop  offset="0.7267" style="stop-color:#DAE366"/>
				<stop  offset="0.7653" style="stop-color:#DAE366"/>
				<stop  offset="1" style="stop-color:#DAE366"/>
			</linearGradient>
			<polygon style="fill:url(#SVGID_10_);" points="71.967,11.503 47.66,22.244 49.715,24.982 			"/>
		</g>
		<g>
			
				<linearGradient id="SVGID_11_" gradientUnits="userSpaceOnUse" x1="-125.7061" y1="-159.5693" x2="-95.0568" y2="-159.5693" gradientTransform="matrix(-0.3917 0.9201 -0.9201 -0.3917 -144.7175 79.69)">
				<stop  offset="0" style="stop-color:#C6E2B2"/>
				<stop  offset="0.2013" style="stop-color:#C0DFAC"/>
				<stop  offset="0.5096" style="stop-color:#B2D99D"/>
				<stop  offset="0.8845" style="stop-color:#9BCF85"/>
				<stop  offset="1" style="stop-color:#93CC7D"/>
			</linearGradient>
			<polygon style="fill:url(#SVGID_11_);" points="49.25,26.893 26.441,48.242 56.121,52.082 			"/>
		</g>
		<g>
			
				<linearGradient id="SVGID_12_" gradientUnits="userSpaceOnUse" x1="-94.292" y1="-168.3677" x2="-78.4562" y2="-149.0418" gradientTransform="matrix(-0.3917 0.9201 -0.9201 -0.3917 -144.7175 79.69)">
				<stop  offset="0" style="stop-color:#C6E2B2"/>
				<stop  offset="0.1797" style="stop-color:#C5E1AE"/>
				<stop  offset="0.3649" style="stop-color:#C4E0A5"/>
				<stop  offset="0.5528" style="stop-color:#C3DE96"/>
				<stop  offset="0.7425" style="stop-color:#C0DB82"/>
				<stop  offset="0.9318" style="stop-color:#BDD863"/>
				<stop  offset="1" style="stop-color:#BCD755"/>
			</linearGradient>
			<polygon style="fill:url(#SVGID_12_);" points="25.869,49.377 32.289,78.926 55.717,53.24 			"/>
		</g>
		<g>
			<polygon style="fill:#93D2C0;" points="66.389,111.611 56.553,54.102 32.795,80.15 			"/>
		</g>
		<g>
			<polygon style="fill:#3AB4A3;" points="26.574,110.889 65.689,112.604 32.332,81.365 			"/>
		</g>
		<g>
			
				<linearGradient id="SVGID_13_" gradientUnits="userSpaceOnUse" x1="-154.8198" y1="-207.7236" x2="-103.7331" y2="-207.7236" gradientTransform="matrix(-0.3917 0.9201 -0.9201 -0.3917 -144.7175 79.69)">
				<stop  offset="0" style="stop-color:#41C0BA"/>
				<stop  offset="1" style="stop-color:#0A81C3"/>
			</linearGradient>
			<polygon style="fill:url(#SVGID_13_);" points="122.836,63.389 80.346,8.305 57.844,52.338 			"/>
		</g>
		<g>
			
				<linearGradient id="SVGID_14_" gradientUnits="userSpaceOnUse" x1="-154.8208" y1="-168.1157" x2="-103.7357" y2="-168.1157" gradientTransform="matrix(-0.3917 0.9201 -0.9201 -0.3917 -144.7175 79.69)">
				<stop  offset="0" style="stop-color:#C6E2B2"/>
				<stop  offset="0.0488" style="stop-color:#C1DFAC"/>
				<stop  offset="0.2986" style="stop-color:#ADD697"/>
				<stop  offset="0.5441" style="stop-color:#9ED089"/>
				<stop  offset="0.781" style="stop-color:#96CD80"/>
				<stop  offset="1" style="stop-color:#93CC7D"/>
			</linearGradient>
			<polygon style="fill:url(#SVGID_14_);" points="78.75,8.795 50.264,26.053 57.113,51.139 			"/>
		</g>
		<g>
			<polygon style="fill:#1CB6BA;" points="122.891,64.613 57.674,53.527 67.689,112.125 			"/>
		</g>
		<g>
			
				<linearGradient id="SVGID_15_" gradientUnits="userSpaceOnUse" x1="-95.5811" y1="-238.4033" x2="-56.2486" y2="-227.1655" gradientTransform="matrix(-0.3917 0.9201 -0.9201 -0.3917 -144.7175 79.69)">
				<stop  offset="0" style="stop-color:#058EB8"/>
				<stop  offset="1" style="stop-color:#186DAE"/>
			</linearGradient>
			<polygon style="fill:url(#SVGID_15_);" points="98.357,128.033 122.795,66.279 68.359,113.137 			"/>
		</g>
		<g>
			
				<linearGradient id="SVGID_16_" gradientUnits="userSpaceOnUse" x1="-15.3545" y1="-198.0117" x2="-8.1734" y2="-216.2039" gradientTransform="matrix(-0.3917 0.9201 -0.9201 -0.3917 -144.7175 79.69)">
				<stop  offset="0" style="stop-color:#C6E2B2"/>
				<stop  offset="1" style="stop-color:#41C0BA"/>
			</linearGradient>
			<polygon style="fill:url(#SVGID_16_);" points="38.518,157.822 76.648,156.225 41.924,141.441 			"/>
		</g>
		<g>
			<polygon style="fill:#1CB6BA;" points="96.852,128.627 67.41,114.006 43.223,139.631 			"/>
		</g>
		<g>
			
				<linearGradient id="SVGID_17_" gradientUnits="userSpaceOnUse" x1="-30.1709" y1="-219.708" x2="3.0356" y2="-219.708" gradientTransform="matrix(-0.3917 0.9201 -0.9201 -0.3917 -144.7175 79.69)">
				<stop  offset="0" style="stop-color:#009FC2"/>
				<stop  offset="1" style="stop-color:#41C0BA"/>
			</linearGradient>
			<polygon style="fill:url(#SVGID_17_);" points="79.107,155.971 97.328,129.752 43.488,140.803 			"/>
		</g>
		<g>
			
				<linearGradient id="SVGID_18_" gradientUnits="userSpaceOnUse" x1="-52.0381" y1="-232.1997" x2="-41.694" y2="-242.2884" gradientTransform="matrix(-0.3917 0.9201 -0.9201 -0.3917 -144.7175 79.69)">
				<stop  offset="0" style="stop-color:#43C0B9"/>
				<stop  offset="1" style="stop-color:#0D7FC3"/>
			</linearGradient>
			<polygon style="fill:url(#SVGID_18_);" points="80.754,155.703 89.268,153.396 108.348,116.793 99.162,129.211 			"/>
		</g>
		<g>
			
				<linearGradient id="SVGID_19_" gradientUnits="userSpaceOnUse" x1="-82.0249" y1="-244.3462" x2="-80.4927" y2="-250.6028" gradientTransform="matrix(-0.3917 0.9201 -0.9201 -0.3917 -144.7175 79.69)">
				<stop  offset="0.1576" style="stop-color:#07B0E4"/>
				<stop  offset="0.4019" style="stop-color:#07AEE3"/>
				<stop  offset="0.5614" style="stop-color:#0AA9DE"/>
				<stop  offset="0.6966" style="stop-color:#0CA0D6"/>
				<stop  offset="0.8183" style="stop-color:#1193CC"/>
				<stop  offset="0.9299" style="stop-color:#1583BF"/>
				<stop  offset="1" style="stop-color:#1778B6"/>
			</linearGradient>
			<polygon style="fill:url(#SVGID_19_);" points="111.865,110.021 121.289,73.346 100.92,124.818 			"/>
		</g>
	</g>
</g>
<g id="Layer_2">
	<g>
		<path d="M171.414,40.85c0,3.391,0.802,5.359,2.406,5.906c3.81,1.021,5.724,4.375,5.742,10.063v6.289
			c0,6.836-3.418,10.254-10.254,10.254h-5.469c-6.836,0-10.254-3.418-10.254-10.254V31.662h5.469v31.445
			c0,3.628,1.595,5.441,4.785,5.441h5.469c3.19,0,4.785-1.813,4.785-5.441v-6.289c0-3.372-1.085-5.341-3.254-5.906
			c-3.263-0.966-4.895-4.32-4.895-10.063H171.414z"/>
		<path d="M191.594,54.084l-0.547,9.023c0,3.628,1.595,5.441,4.785,5.441h5.469c3.189,0,4.785-1.813,4.785-5.441V49.545
			c0-3.099-1.322-4.922-3.965-5.469h-1.094c-5.469-0.364-8.203-4.42-8.203-12.168h5.469c0,4.558,0.893,7.019,2.68,7.383h1.148
			c6.289,0.547,9.434,3.965,9.434,10.254v13.563c0,6.836-3.418,10.254-10.254,10.254h-5.469c-6.836,0-10.254-3.418-10.254-10.254
			l0.547-9.023H191.594z"/>
		<path d="M218.938,44.787c0-6.836,3.399-10.254,10.199-10.254h0.602c3.044,0,5.824,1.076,8.34,3.227v-6.07h5.469v31.445
			c0,6.836-3.418,10.254-10.254,10.254h-5.469c-6.836,0-10.254-3.418-10.254-10.254l0.547-7.574h5.469l-0.547,7.574
			c0,3.628,1.595,5.441,4.785,5.441h5.469c3.189,0,4.785-1.813,4.785-5.441V46.318c-0.128-4.119-2.908-6.453-8.34-7h-0.547
			c-3.19,0-4.785,1.823-4.785,5.469l0.273,3.855h-5.469L218.938,44.787z"/>
		<path d="M255.852,54.084l-0.547,9.023c0,3.628,1.595,5.441,4.785,5.441h5.469c3.189,0,4.785-1.813,4.785-5.441V49.545
			c0-3.099-1.322-4.922-3.965-5.469h-1.094c-5.469-0.364-8.203-4.42-8.203-12.168h5.469c0,4.558,0.893,7.019,2.68,7.383h1.148
			c6.289,0.547,9.434,3.965,9.434,10.254v13.563c0,6.836-3.418,10.254-10.254,10.254h-5.469c-6.836,0-10.254-3.418-10.254-10.254
			l0.547-9.023H255.852z"/>
		<path d="M297.551,36.721h-1.668c-4.813,0.857-7.675,3.555-8.586,8.094v1.723c1.877-1.258,3.572-1.887,5.086-1.887h5.25
			c6.799,0,10.199,3.418,10.199,10.254v8.203c0,6.289-2.689,9.707-8.066,10.254v-4.813c1.731-0.547,2.598-2.36,2.598-5.441v-8.203
			c0-3.646-1.596-5.469-4.785-5.469h-5.496c-3.19,0-4.785,1.823-4.785,5.469v8.203c0,3.081,0.774,4.895,2.324,5.441v4.813
			c-5.195-0.547-7.793-3.965-7.793-10.254v-8.203v-8.832v-1.34c0.911-7.984,5.578-12.25,14-12.797h1.723V36.721z"/>
		<path d="M344.336,68.549c3.555-0.547,5.332-2.36,5.332-5.441V41.916c0-3.646-1.596-5.469-4.785-5.469h-2.188
			c-2.953,0-4.621,1.258-5.004,3.773c0.091,0.547,0.164,1.112,0.219,1.695v21.191c0,6.836-3.418,10.254-10.254,10.254h-3.281
			c-6.836,0-10.254-3.418-10.254-10.254V41.916c0-6.836,3.399-10.254,10.199-10.254h3.336c3.281,0,5.814,1.121,7.602,3.363
			c1.641-2.242,4.102-3.363,7.383-3.363h2.242c6.836,0,10.254,3.418,10.254,10.254v21.191c0,6.289-3.592,9.707-10.773,10.254
			L344.336,68.549z M327.656,68.549c3.189,0,4.785-1.813,4.785-5.441V41.916c0-3.646-1.596-5.469-4.785-5.469h-3.281
			c-3.19,0-4.785,1.823-4.785,5.469v21.191c0,3.628,1.595,5.441,4.785,5.441H327.656z"/>
		<path d="M371.68,48.068h5.004c3.135,0,4.703-1.813,4.703-5.441v-2.078c0-2.734-1.596-4.102-4.785-4.102h-3.828
			c-3.19,0-4.785,1.367-4.785,4.102l0.547,3.609h-5.469l-0.547-3.609c0-5.924,3.399-8.887,10.199-8.887h3.883
			c6.836,0,10.254,2.963,10.254,8.887v2.078c0,3.373-1.104,5.906-3.309,7.602c2.57,1.695,3.855,4.402,3.855,8.121v4.785
			c0,6.836-3.418,10.254-10.254,10.254h-5.469c-6.836,0-10.254-3.418-10.254-10.254l0.547-6.809h5.469l-0.547,6.809
			c0,3.628,1.595,5.441,4.785,5.441h5.469c3.189,0,4.785-1.813,4.785-5.441V58.35c0-3.646-1.596-5.469-4.785-5.469h-5.469V48.068z"
			/>
		<path d="M395.059,41.916c0-6.836,3.399-10.254,10.199-10.254h3.883c6.836,0,10.254,3.418,10.254,10.254v21.191
			c0,6.836-3.418,10.254-10.254,10.254h-5.469c-6.836,0-10.254-3.418-10.254-10.254l0.82-8.121h5.469l-0.82,8.121
			c0,3.628,1.595,5.441,4.785,5.441h5.469c3.189,0,4.785-1.813,4.785-5.441V41.916c0-3.646-1.596-5.469-4.785-5.469h-3.828
			c-3.19,0-4.785,1.823-4.785,5.469l0.273,5.223h-5.469L395.059,41.916z"/>
		<path d="M431.699,60.428c0,2.334,0.46,3.997,1.381,4.99c0.92,0.994,2.338,1.49,4.252,1.49l1.34,0.027
			c6.836,0,10.254,2.143,10.254,6.426h-6.016c0-1.094-1.413-1.641-4.238-1.641l-2.871,0.055c-4.047-0.018-6.654-1.18-7.82-3.486
			c-1.167-2.306-1.75-4.926-1.75-7.861l-0.547-18.539c0-6.836,3.399-10.254,10.199-10.254h6.043c6.799,0,10.199,3.418,10.199,10.254
			v5.441c0,7.019-2.963,10.801-8.887,11.348v-5.086c2.278-0.364,3.418-2.451,3.418-6.262v-5.441c0-3.646-1.596-5.469-4.785-5.469
			h-5.934c-3.19,0-4.785,1.823-4.785,5.469L431.699,60.428z"/>
		<path d="M475.367,59.006V41.889c0-3.646-1.596-5.469-4.785-5.469h-1.914c-3.19,0-4.785,1.823-4.785,5.469v21.219
			c0,3.081,1.868,4.895,5.605,5.441v4.813c-7.383-0.547-11.074-3.965-11.074-10.254V41.889c0-6.836,3.399-10.254,10.199-10.254
			h1.969c3.281,0,5.787,1.121,7.52,3.363c1.713-2.242,4.22-3.363,7.52-3.363h1.695c6.799,0,10.199,3.418,10.199,10.254v21.219
			c0,6.289-3.691,9.707-11.074,10.254v-4.813c3.736-0.547,5.605-2.36,5.605-5.441V41.889c0-3.646-1.596-5.469-4.785-5.469h-1.641
			c-3.19,0-4.785,1.823-4.785,5.469v17.117H475.367z"/>
		<path d="M521.906,40.85c0,3.391,0.802,5.359,2.406,5.906c3.81,1.021,5.724,4.375,5.742,10.063v6.289
			c0,6.836-3.418,10.254-10.254,10.254h-5.469c-6.836,0-10.254-3.418-10.254-10.254V31.662h5.469v31.445
			c0,3.628,1.595,5.441,4.785,5.441h5.469c3.189,0,4.785-1.813,4.785-5.441v-6.289c0-3.372-1.085-5.341-3.254-5.906
			c-3.264-0.966-4.895-4.32-4.895-10.063H521.906z"/>
		<path d="M564.973,73.361c-6.472-0.911-9.707-4.329-9.707-10.254V41.943c0-6.836,3.399-10.254,10.199-10.254h5.523
			c6.836,0,10.254,3.418,10.254,10.254v21.164c0,5.925-3.236,9.343-9.707,10.254v-4.813c2.825-0.438,4.238-2.251,4.238-5.441V41.943
			c0-3.646-1.596-5.469-4.785-5.469h-5.469c-3.19,0-4.785,1.823-4.785,5.469v21.164c0,3.19,1.412,5.004,4.238,5.441V73.361z"/>
		<path d="M587.805,40.795c0-5.742,3.235-8.613,9.707-8.613l13.535,0.027v4.785l-13.535-0.027c-2.826,0-4.238,1.276-4.238,3.828
			v4.676h4.73h5.523c6.836,0,10.254,3.418,10.254,10.254v7.383c0,6.836-3.418,10.254-10.254,10.254h-5.469
			c-6.836,0-10.254-3.418-10.254-10.254V40.795z M603.527,68.549c3.189,0,4.785-1.813,4.785-5.441v-7.383
			c0-3.646-1.596-5.469-4.785-5.469h-5.469h-4.785v12.852c0,3.628,1.595,5.441,4.785,5.441H603.527z"/>
		<path d="M637.023,59.006V41.889c0-3.646-1.596-5.469-4.785-5.469h-1.914c-3.19,0-4.785,1.823-4.785,5.469v21.219
			c0,3.081,1.868,4.895,5.605,5.441v4.813c-7.383-0.547-11.074-3.965-11.074-10.254V41.889c0-6.836,3.399-10.254,10.199-10.254
			h1.969c3.281,0,5.787,1.121,7.52,3.363c1.713-2.242,4.22-3.363,7.52-3.363h1.695c6.799,0,10.199,3.418,10.199,10.254v21.219
			c0,6.289-3.691,9.707-11.074,10.254v-4.813c3.736-0.547,5.605-2.36,5.605-5.441V41.889c0-3.646-1.596-5.469-4.785-5.469h-1.641
			c-3.19,0-4.785,1.823-4.785,5.469v17.117H637.023z"/>
		<path d="M675.715,48.068h5.004c3.135,0,4.703-1.813,4.703-5.441v-2.078c0-2.734-1.596-4.102-4.785-4.102h-3.828
			c-3.19,0-4.785,1.367-4.785,4.102l0.547,3.609h-5.469l-0.547-3.609c0-5.924,3.399-8.887,10.199-8.887h3.883
			c6.836,0,10.254,2.963,10.254,8.887v2.078c0,3.373-1.104,5.906-3.309,7.602c2.57,1.695,3.855,4.402,3.855,8.121v4.785
			c0,6.836-3.418,10.254-10.254,10.254h-5.469c-6.836,0-10.254-3.418-10.254-10.254l0.547-6.809h5.469l-0.547,6.809
			c0,3.628,1.595,5.441,4.785,5.441h5.469c3.189,0,4.785-1.813,4.785-5.441V58.35c0-3.646-1.596-5.469-4.785-5.469h-5.469V48.068z"
			/>
		<path d="M703.469,54.084l-0.547,9.023c0,3.628,1.595,5.441,4.785,5.441h5.469c3.189,0,4.785-1.813,4.785-5.441V49.545
			c0-3.099-1.322-4.922-3.965-5.469h-1.094c-5.469-0.364-8.203-4.42-8.203-12.168h5.469c0,4.558,0.893,7.019,2.68,7.383h1.148
			c6.289,0.547,9.434,3.965,9.434,10.254v13.563c0,6.836-3.418,10.254-10.254,10.254h-5.469c-6.836,0-10.254-3.418-10.254-10.254
			L698,54.084H703.469z"/>
		<path d="M748.066,31.635c0,2.498,0.492,3.756,1.477,3.773c4.648,0,6.973,2.99,6.973,8.969c0,2.953-0.967,5.195-2.898,6.727
			c2.297,1.714,3.445,4.375,3.445,7.984v4.047c0,6.836-3.418,10.254-10.254,10.254h-6.836c-6.836,0-10.254-3.418-10.254-10.254
			V32.428h5.469v30.707c0,3.628,1.595,5.441,4.785,5.441h6.836c3.189,0,4.785-1.813,4.785-5.441v-4.047
			c0-3.646-1.596-5.469-4.785-5.469h-5.742v-4.785h5.742v-0.027c2.825,0,4.238-1.477,4.238-4.43c0-2.752-0.492-4.129-1.477-4.129
			c-4.648,0-6.973-2.871-6.973-8.613H748.066z"/>
		<path d="M773.059,73.361c-6.472-0.911-9.707-4.329-9.707-10.254V41.943c0-6.836,3.399-10.254,10.199-10.254h5.523
			c6.836,0,10.254,3.418,10.254,10.254v21.164c0,5.925-3.236,9.343-9.707,10.254v-4.813c2.825-0.438,4.238-2.251,4.238-5.441V41.943
			c0-3.646-1.596-5.469-4.785-5.469h-5.469c-3.19,0-4.785,1.823-4.785,5.469v21.164c0,3.19,1.412,5.004,4.238,5.441V73.361z"/>
		<path d="M797.258,41.916c0-6.836,3.399-10.254,10.199-10.254h3.883c6.836,0,10.254,3.418,10.254,10.254v21.191
			c0,6.836-3.418,10.254-10.254,10.254h-5.469c-6.836,0-10.254-3.418-10.254-10.254l0.82-8.121h5.469l-0.82,8.121
			c0,3.628,1.595,5.441,4.785,5.441h5.469c3.189,0,4.785-1.813,4.785-5.441V41.916c0-3.646-1.596-5.469-4.785-5.469h-3.828
			c-3.19,0-4.785,1.823-4.785,5.469L803,47.139h-5.469L797.258,41.916z"/>
		<path d="M827.883,55.725c0-6.836,3.399-10.254,10.199-10.254h0.41l0.438-4.184c-0.037-2.188-0.939-3.705-2.707-4.553
			c-1.769-0.848-2.652-2.538-2.652-5.072h6.316c0.018,1.039,0.783,2.151,2.297,3.336c1.513,1.186,2.196,3.281,2.051,6.289
			l-0.273,4.184c6.599,0.128,9.898,3.546,9.898,10.254v7.383c0,6.836-3.418,10.254-10.254,10.254h-5.469
			c-6.836,0-10.254-3.418-10.254-10.254V55.725z M843.605,68.549c3.189,0,4.785-1.813,4.785-5.441v-7.383
			c0-3.646-1.596-5.469-4.785-5.469h-5.469c-3.19,0-4.785,1.823-4.785,5.469v7.383c0,3.628,1.595,5.441,4.785,5.441H843.605z"/>
		<path d="M869.855,73.361c-6.472-0.911-9.707-4.329-9.707-10.254V41.943c0-6.836,3.399-10.254,10.199-10.254h5.523
			c6.836,0,10.254,3.418,10.254,10.254v21.164c0,5.925-3.236,9.343-9.707,10.254v-4.813c2.825-0.438,4.238-2.251,4.238-5.441V41.943
			c0-3.646-1.596-5.469-4.785-5.469h-5.469c-3.19,0-4.785,1.823-4.785,5.469v21.164c0,3.19,1.412,5.004,4.238,5.441V73.361z"/>
		<path d="M910.516,40.85c0,3.391,0.802,5.359,2.406,5.906c3.81,1.021,5.724,4.375,5.742,10.063v6.289
			c0,6.836-3.418,10.254-10.254,10.254h-5.469c-6.836,0-10.254-3.418-10.254-10.254V31.662h5.469v31.445
			c0,3.628,1.595,5.441,4.785,5.441h5.469c3.189,0,4.785-1.813,4.785-5.441v-6.289c0-3.372-1.085-5.341-3.254-5.906
			c-3.264-0.966-4.895-4.32-4.895-10.063H910.516z"/>
		<path d="M153.313,129.843v-20.727c0-6.836,3.418-10.254,10.254-10.254h5.523c6.8,0,10.199,3.418,10.199,10.254v7.328
			c0,6.836-3.418,10.254-10.254,10.254h-5.469c-1.841,0-3.437-0.766-4.785-2.297c-0.146,5.797,0.374,8.873,1.559,9.229
			s2.552,0.516,4.102,0.479h2.406c6.891,0.037,10.336,2.197,10.336,6.48h-5.742c0-1.094-1.504-1.641-4.512-1.641h-3.309
			c-4.685-0.055-7.574-0.875-8.668-2.461S153.313,132.687,153.313,129.843z M169.035,121.886c3.19,0,4.785-1.813,4.785-5.441v-7.328
			c0-3.646-1.595-5.469-4.785-5.469h-5.469c-3.19,0-4.785,1.823-4.785,5.469v7.328c0,3.628,1.595,5.441,4.785,5.441H169.035z"/>
		<path d="M191.32,121.284l-0.547,9.023c0,3.628,1.595,5.441,4.785,5.441h5.469c3.189,0,4.785-1.813,4.785-5.441v-13.563
			c0-3.099-1.322-4.922-3.965-5.469h-1.094c-5.469-0.364-8.203-4.42-8.203-12.168h5.469c0,4.558,0.893,7.019,2.68,7.383h1.148
			c6.289,0.547,9.434,3.965,9.434,10.254v13.563c0,6.836-3.418,10.254-10.254,10.254h-5.469c-6.836,0-10.254-3.418-10.254-10.254
			l0.547-9.023H191.32z"/>
		<path d="M236.492,110.62c0-6.836,3.399-10.254,10.199-10.254h2.816v-1.504h4.922v1.504h3.063c6.836,0,10.254,3.418,10.254,10.254
			v19.688c0,6.836-3.418,10.254-10.254,10.254h-10.746c-6.836,0-10.254-3.418-10.254-10.254V110.62z M249.508,104.741h-2.762
			c-3.19,0-4.785,1.823-4.785,5.469v20.098c0,3.628,1.595,5.441,4.785,5.441h10.746c3.189,0,4.785-1.813,4.785-5.441V110.21
			c0-3.646-1.596-5.469-4.785-5.469h-3.063v18.949h-4.922V104.741z"/>
		<path d="M275.676,109.116c0-6.836,3.399-10.254,10.199-10.254h3.883c6.836,0,10.254,3.418,10.254,10.254v21.191
			c0,6.836-3.418,10.254-10.254,10.254h-5.469c-6.836,0-10.254-3.418-10.254-10.254l0.82-8.121h5.469l-0.82,8.121
			c0,3.628,1.595,5.441,4.785,5.441h5.469c3.189,0,4.785-1.813,4.785-5.441v-21.191c0-3.646-1.596-5.469-4.785-5.469h-3.828
			c-3.19,0-4.785,1.823-4.785,5.469l0.273,5.223h-5.469L275.676,109.116z"/>
		<path d="M307.668,111.987c0-6.836,3.399-10.254,10.199-10.254h0.602c3.044,0,5.824,1.076,8.34,3.227v-6.07h5.469v31.445
			c0,6.836-3.418,10.254-10.254,10.254h-5.469c-6.836,0-10.254-3.418-10.254-10.254l0.547-7.574h5.469l-0.547,7.574
			c0,3.628,1.595,5.441,4.785,5.441h5.469c3.189,0,4.785-1.813,4.785-5.441v-16.816c-0.128-4.119-2.908-6.453-8.34-7h-0.547
			c-3.19,0-4.785,1.823-4.785,5.469l0.273,3.855h-5.469L307.668,111.987z"/>
		<path d="M338.84,107.995c0-5.742,3.235-8.613,9.707-8.613l13.535,0.027v4.785l-13.535-0.027c-2.826,0-4.238,1.276-4.238,3.828
			v4.676h4.73h5.523c6.836,0,10.254,3.418,10.254,10.254v7.383c0,6.836-3.418,10.254-10.254,10.254h-5.469
			c-6.836,0-10.254-3.418-10.254-10.254V107.995z M354.563,135.749c3.189,0,4.785-1.813,4.785-5.441v-7.383
			c0-3.646-1.596-5.469-4.785-5.469h-5.469h-4.785v12.852c0,3.628,1.595,5.441,4.785,5.441H354.563z"/>
		<path d="M388.059,126.206v-17.117c0-3.646-1.596-5.469-4.785-5.469h-1.914c-3.19,0-4.785,1.823-4.785,5.469v21.219
			c0,3.081,1.868,4.895,5.605,5.441v4.813c-7.383-0.547-11.074-3.965-11.074-10.254v-21.219c0-6.836,3.399-10.254,10.199-10.254
			h1.969c3.281,0,5.787,1.121,7.52,3.363c1.713-2.242,4.22-3.363,7.52-3.363h1.695c6.799,0,10.199,3.418,10.199,10.254v21.219
			c0,6.289-3.691,9.707-11.074,10.254v-4.813c3.736-0.547,5.605-2.36,5.605-5.441v-21.219c0-3.646-1.596-5.469-4.785-5.469h-1.641
			c-3.19,0-4.785,1.823-4.785,5.469v17.117H388.059z"/>
		<path d="M422.512,127.628c0,2.334,0.46,3.997,1.381,4.99c0.92,0.994,2.338,1.49,4.252,1.49l1.34,0.027
			c6.836,0,10.254,2.143,10.254,6.426h-6.016c0-1.094-1.413-1.641-4.238-1.641l-2.871,0.055c-4.047-0.018-6.654-1.18-7.82-3.486
			c-1.167-2.306-1.75-4.926-1.75-7.861l-0.547-18.539c0-6.836,3.399-10.254,10.199-10.254h6.043c6.799,0,10.199,3.418,10.199,10.254
			v5.441c0,7.019-2.963,10.801-8.887,11.348v-5.086c2.278-0.364,3.418-2.451,3.418-6.262v-5.441c0-3.646-1.596-5.469-4.785-5.469
			h-5.934c-3.19,0-4.785,1.823-4.785,5.469L422.512,127.628z"/>
		<path d="M466.18,126.206v-17.117c0-3.646-1.596-5.469-4.785-5.469h-1.914c-3.19,0-4.785,1.823-4.785,5.469v21.219
			c0,3.081,1.868,4.895,5.605,5.441v4.813c-7.383-0.547-11.074-3.965-11.074-10.254v-21.219c0-6.836,3.399-10.254,10.199-10.254
			h1.969c3.281,0,5.787,1.121,7.52,3.363c1.713-2.242,4.22-3.363,7.52-3.363h1.695c6.799,0,10.199,3.418,10.199,10.254v21.219
			c0,6.289-3.691,9.707-11.074,10.254v-4.813c3.736-0.547,5.605-2.36,5.605-5.441v-21.219c0-3.646-1.596-5.469-4.785-5.469h-1.641
			c-3.19,0-4.785,1.823-4.785,5.469v17.117H466.18z"/>
		<path d="M494.617,122.897c0-6.836,3.399-10.254,10.199-10.254h7.301v-4.348c0-3.099-1.55-4.648-4.648-4.648
			c-3.1,0-4.648,1.003-4.648,3.008h-5.469c0-5.195,3.372-7.793,10.117-7.793c6.744,0,10.117,3.145,10.117,9.434v5.195
			c3.463,1.404,5.195,4.539,5.195,9.406v7.41c0,6.836-3.418,10.254-10.254,10.254h-7.656c-6.836,0-10.254-3.418-10.254-10.254
			V122.897z M512.527,135.749c3.189,0,4.785-1.813,4.785-5.441v-7.41c0-3.646-1.596-5.469-4.785-5.469h-7.656
			c-3.19,0-4.785,1.823-4.785,5.469v7.41c0,3.628,1.595,5.441,4.785,5.441H512.527z"/>
		<path d="M538.777,140.562c-6.472-0.911-9.707-4.329-9.707-10.254v-21.164c0-6.836,3.399-10.254,10.199-10.254h5.523
			c6.836,0,10.254,3.418,10.254,10.254v21.164c0,5.925-3.236,9.343-9.707,10.254v-4.813c2.825-0.438,4.238-2.251,4.238-5.441
			v-21.164c0-3.646-1.596-5.469-4.785-5.469h-5.469c-3.19,0-4.785,1.823-4.785,5.469v21.164c0,3.19,1.412,5.004,4.238,5.441V140.562
			z"/>
		<path d="M562.977,109.116c0-6.836,3.399-10.254,10.199-10.254h3.883c6.836,0,10.254,3.418,10.254,10.254v21.191
			c0,6.836-3.418,10.254-10.254,10.254h-5.469c-6.836,0-10.254-3.418-10.254-10.254l0.82-8.121h5.469l-0.82,8.121
			c0,3.628,1.595,5.441,4.785,5.441h5.469c3.189,0,4.785-1.813,4.785-5.441v-21.191c0-3.646-1.596-5.469-4.785-5.469h-3.828
			c-3.19,0-4.785,1.823-4.785,5.469l0.273,5.223h-5.469L562.977,109.116z"/>
		<path d="M593.602,122.925c0-6.836,3.399-10.254,10.199-10.254h0.41l0.438-4.184c-0.037-2.188-0.939-3.705-2.707-4.553
			c-1.769-0.848-2.652-2.538-2.652-5.072h6.316c0.018,1.039,0.783,2.151,2.297,3.336c1.513,1.186,2.196,3.281,2.051,6.289
			l-0.273,4.184c6.599,0.128,9.898,3.546,9.898,10.254v7.383c0,6.836-3.418,10.254-10.254,10.254h-5.469
			c-6.836,0-10.254-3.418-10.254-10.254V122.925z M609.324,135.749c3.189,0,4.785-1.813,4.785-5.441v-7.383
			c0-3.646-1.596-5.469-4.785-5.469h-5.469c-3.19,0-4.785,1.823-4.785,5.469v7.383c0,3.628,1.595,5.441,4.785,5.441H609.324z"/>
		<path d="M635.574,140.562c-6.472-0.911-9.707-4.329-9.707-10.254v-21.164c0-6.836,3.399-10.254,10.199-10.254h5.523
			c6.836,0,10.254,3.418,10.254,10.254v21.164c0,5.925-3.236,9.343-9.707,10.254v-4.813c2.825-0.438,4.238-2.251,4.238-5.441
			v-21.164c0-3.646-1.596-5.469-4.785-5.469h-5.469c-3.19,0-4.785,1.823-4.785,5.469v21.164c0,3.19,1.412,5.004,4.238,5.441V140.562
			z"/>
		<path d="M676.234,108.05c0,3.391,0.802,5.359,2.406,5.906c3.81,1.021,5.724,4.375,5.742,10.063v6.289
			c0,6.836-3.418,10.254-10.254,10.254h-5.469c-6.836,0-10.254-3.418-10.254-10.254V98.862h5.469v31.445
			c0,3.628,1.595,5.441,4.785,5.441h5.469c3.189,0,4.785-1.813,4.785-5.441v-6.289c0-3.372-1.085-5.341-3.254-5.906
			c-3.264-0.966-4.895-4.32-4.895-10.063H676.234z"/>
		<path d="M727.422,108.05c0,3.391,0.802,5.359,2.406,5.906c3.81,1.021,5.724,4.375,5.742,10.063v6.289
			c0,6.836-3.418,10.254-10.254,10.254h-5.469c-6.836,0-10.254-3.418-10.254-10.254V98.862h5.469v31.445
			c0,3.628,1.595,5.441,4.785,5.441h5.469c3.189,0,4.785-1.813,4.785-5.441v-6.289c0-3.372-1.085-5.341-3.254-5.906
			c-3.264-0.966-4.895-4.32-4.895-10.063H727.422z"/>
		<path d="M747.602,121.284l-0.547,9.023c0,3.628,1.595,5.441,4.785,5.441h5.469c3.189,0,4.785-1.813,4.785-5.441v-13.563
			c0-3.099-1.322-4.922-3.965-5.469h-1.094c-5.469-0.364-8.203-4.42-8.203-12.168h5.469c0,4.558,0.893,7.019,2.68,7.383h1.148
			c6.289,0.547,9.434,3.965,9.434,10.254v13.563c0,6.836-3.418,10.254-10.254,10.254h-5.469c-6.836,0-10.254-3.418-10.254-10.254
			l0.547-9.023H747.602z"/>
		<path d="M779.594,121.284l-0.547,9.023c0,3.628,1.595,5.441,4.785,5.441h5.469c3.189,0,4.785-1.813,4.785-5.441v-13.563
			c0-3.099-1.322-4.922-3.965-5.469h-1.094c-5.469-0.364-8.203-4.42-8.203-12.168h5.469c0,4.558,0.893,7.019,2.68,7.383h1.148
			c6.289,0.547,9.434,3.965,9.434,10.254v13.563c0,6.836-3.418,10.254-10.254,10.254h-5.469c-6.836,0-10.254-3.418-10.254-10.254
			l0.547-9.023H779.594z"/>
		<path d="M805.57,122.897c0-6.836,3.399-10.254,10.199-10.254h7.301v-4.348c0-3.099-1.55-4.648-4.648-4.648
			c-3.1,0-4.648,1.003-4.648,3.008h-5.469c0-5.195,3.372-7.793,10.117-7.793c6.744,0,10.117,3.145,10.117,9.434v5.195
			c3.463,1.404,5.195,4.539,5.195,9.406v7.41c0,6.836-3.418,10.254-10.254,10.254h-7.656c-6.836,0-10.254-3.418-10.254-10.254
			V122.897z M823.48,135.749c3.189,0,4.785-1.813,4.785-5.441v-7.41c0-3.646-1.596-5.469-4.785-5.469h-7.656
			c-3.19,0-4.785,1.823-4.785,5.469v7.41c0,3.628,1.595,5.441,4.785,5.441H823.48z"/>
		<path d="M841.391,109.116c0-6.836,3.399-10.254,10.199-10.254h3.883c6.836,0,10.254,3.418,10.254,10.254v21.191
			c0,6.836-3.418,10.254-10.254,10.254h-5.469c-6.836,0-10.254-3.418-10.254-10.254l0.82-8.121h5.469l-0.82,8.121
			c0,3.628,1.595,5.441,4.785,5.441h5.469c3.189,0,4.785-1.813,4.785-5.441v-21.191c0-3.646-1.596-5.469-4.785-5.469h-3.828
			c-3.19,0-4.785,1.823-4.785,5.469l0.273,5.223h-5.469L841.391,109.116z"/>
		<path d="M872.289,107.995c0-5.742,3.235-8.613,9.707-8.613l13.535,0.027v4.785l-13.535-0.027c-2.826,0-4.238,1.276-4.238,3.828
			v4.676h4.73h5.523c6.836,0,10.254,3.418,10.254,10.254v7.383c0,6.836-3.418,10.254-10.254,10.254h-5.469
			c-6.836,0-10.254-3.418-10.254-10.254V107.995z M888.012,135.749c3.189,0,4.785-1.813,4.785-5.441v-7.383
			c0-3.646-1.596-5.469-4.785-5.469h-5.469h-4.785v12.852c0,3.628,1.595,5.441,4.785,5.441H888.012z"/>
		<path d="M904.555,110.62c0-6.836,3.399-10.254,10.199-10.254h2.816v-1.504h4.922v1.504h3.063c6.836,0,10.254,3.418,10.254,10.254
			v19.688c0,6.836-3.418,10.254-10.254,10.254h-10.746c-6.836,0-10.254-3.418-10.254-10.254V110.62z M917.57,104.741h-2.762
			c-3.19,0-4.785,1.823-4.785,5.469v20.098c0,3.628,1.595,5.441,4.785,5.441h10.746c3.189,0,4.785-1.813,4.785-5.441V110.21
			c0-3.646-1.596-5.469-4.785-5.469h-3.063v18.949h-4.922V104.741z"/>
		<path d="M959.324,126.206v-17.117c0-3.646-1.596-5.469-4.785-5.469h-1.914c-3.19,0-4.785,1.823-4.785,5.469v21.219
			c0,3.081,1.868,4.895,5.605,5.441v4.813c-7.383-0.547-11.074-3.965-11.074-10.254v-21.219c0-6.836,3.399-10.254,10.199-10.254
			h1.969c3.281,0,5.787,1.121,7.52,3.363c1.713-2.242,4.22-3.363,7.52-3.363h1.695c6.799,0,10.199,3.418,10.199,10.254v21.219
			c0,6.289-3.691,9.707-11.074,10.254v-4.813c3.736-0.547,5.605-2.36,5.605-5.441v-21.219c0-3.646-1.596-5.469-4.785-5.469h-1.641
			c-3.19,0-4.785,1.823-4.785,5.469v17.117H959.324z"/>
	</g>
</g>
</svg>
